<svg viewBox="0 0 24 24" xmlns="http://www.w3.org/2000/svg"><g fill="#000000"><path d="m2.01 6.99h6.64v1.67h-6.64z"/><path d="m11.17 15.32h-9.17v1.67h9.17z"/><path d="m4.51 11.16h-2.51v1.66h3.48 5.82l-1.67-1.66z"/></g><path d="m12 9.07a.42.42 0 0 1 .42-.36.41.41 0 0 1 .41.36v9.18a2.09 2.09 0 0 0 2.61 2 2.16 2.16 0 0 0 1.56-2.11v-12.39a.4.4 0 0 1 .19-.4.41.41 0 0 1 .45 0 .4.4 0 0 1 .19.4v9.16a2.07 2.07 0 0 0 .81 1.64 2 2 0 0 0 1.8.37 2.16 2.16 0 0 0 1.56-2.12v-2.8h-1.67v2.92a.4.4 0 0 1 -.19.4.41.41 0 0 1 -.45 0 .4.4 0 0 1 -.19-.4v-9.17a2.09 2.09 0 0 0 -2.61-2 2.16 2.16 0 0 0 -1.56 2.13v12.37a.4.4 0 0 1 -.19.4.41.41 0 0 1 -.45 0 .4.4 0 0 1 -.19-.4v-9.17a2.07 2.07 0 0 0 -4.11-.36 2.4 2.4 0 0 0 -.05.46v2l1.66 1.64z" fill="#000000"/></svg>